# xmcd
#
# Track frame offsets: 
#        150
#        23548
#        39542
#        62263
#        78306
#        93545
#        118002
#        142228
#        158308
#        179992
#        202849
#        227750
#
# Disc length: 3429 seconds
#
# Revision: 0
# Processed by: cddbd v1.5.2PL0 Copyright (c) Steve Scherf et al.
# Submitted via: ExactAudioCopy v1.0b3
#
DISCID=950d630c
DTITLE=ElVille Blues Band - No Fake No Lie
DYEAR=2013
DGENRE=Blues
TTITLE0=Great Show
TTITLE1=Sentimental Journey
TTITLE2=Wake Up!
TTITLE3=Hoochie Coochie
TTITLE4=Who Laid A Curse
TTITLE5=Someone Like You
TTITLE6=Spoonful
TTITLE7=Uncle's Present
TTITLE8=You Can Tell Me
TTITLE9=Cheese Mojo
TTITLE10=Mississippi Water
TTITLE11=I'd Rather Go Blind
EXTD=
EXTT0=
EXTT1=
EXTT2=
EXTT3=
EXTT4=
EXTT5=
EXTT6=
EXTT7=
EXTT8=
EXTT9=
EXTT10=
EXTT11=
PLAYORDER=
